<?xml version="1.0" encoding="utf-8"?>
<!-- Generator: Adobe Illustrator 25.4.1, SVG Export Plug-In . SVG Version: 6.00 Build 0)  -->
<svg version="1.1" id="katman_1" xmlns="http://www.w3.org/2000/svg" xmlns:xlink="http://www.w3.org/1999/xlink" x="0px" y="0px"
	 viewBox="0 0 800 800" style="enable-background:new 0 0 800 800;" xml:space="preserve">
<style type="text/css">
	.st0{fill:#B4D1FA;}
	.st1{clip-path:url(#SVGID_00000021800984696237628170000017090805205038436543_);}
	.st2{fill:#FFDBA9;}
	.st3{fill:#F7B0D0;}
	.st4{fill:#DB8946;}
	.st5{fill:#FFBB8D;}
	.st6{fill:#F4C3E4;}
	.st7{fill:#FFFFFF;}
	.st8{fill:#FEC27A;}
	.st9{fill:#1E1914;}
	.st10{fill:#F4A658;}
	.st11{fill:#C95D89;}
	.st12{fill:#BA5683;}
</style>
<g>
	<g>
		<path class="st0" d="M753.6,302.5c-37.1-69.2-123.7-121.5-212.7-98c-68.4,18.1-122.4,76.8-141,152c-18.6-75.2-72.6-133.9-141-152
			c-88.9-23.5-175.5,28.8-212.7,98c-31.5,58.6-24.7,124.2-24,130.5c2.7,23.9,9.1,43.5,12.2,52.4c20.9,59.9,47.1,95.9,101,127.2
			c47.8,27.7,99,45.1,149.5,67.3c50.5,22.2,102.3,48.5,115.1,103.5c12.8-55,64.6-81.3,115.1-103.5c50.5-22.2,101.7-39.5,149.5-67.3
			c53.9-31.3,80-67.3,101-127.2c3.1-8.8,9.4-28.5,12.2-52.4C778.4,426.7,785.1,361.1,753.6,302.5z"/>
	</g>
	<g>
		<defs>
			<path id="SVGID_1_" d="M22.4,16.7v369.9c-2.3,24.9-0.4,43.2,0,46.3c2.7,23.9,9.1,43.5,12.2,52.4c20.9,59.9,47.1,95.9,101,127.2
				c47.8,27.7,99,45.1,149.5,67.3c50.5,22.2,102.3,48.5,115.1,103.5c12.8-55,64.6-81.3,115.1-103.5c50.5-22.2,101.7-39.5,149.5-67.3
				c53.9-31.3,80-67.3,101-127.2c3.1-8.8,9.4-28.5,12.2-52.4h1.1V16.7H22.4z"/>
		</defs>
		<clipPath id="SVGID_00000170278505718422953590000014533760149030666385_">
			<use xlink:href="#SVGID_1_"  style="overflow:visible;"/>
		</clipPath>
		<g style="clip-path:url(#SVGID_00000170278505718422953590000014533760149030666385_);">
			<g>
				<g>
					<path class="st2" d="M455.8,635.5c-4.9-5-23.3-25-19.1-45.3c16.4-12.8,35.6-35.5,35.6-35.5l0,0c13.3-42.7,26.5-55,26.5-55
						s7.7-9.2,13.5-10.8c9.2-23.9,5.7-55,5.7-55l38-33.2c-1.8,56.7,2.7,80.2,6.4,89.8c16.2,7.4,16.2,31.2,16.2,31.2l-20,193.4
						c7.8,50.2,16.4,122.6,32.4,169.5l-127.2,49.4c0,0-18.3-65.6-15.4-218.8C448.8,690.1,453.4,655.4,455.8,635.5z"/>
					<path class="st3" d="M562.4,490.4c0,0-52.3,8.7-50.1-1.5c0,0-23.7,6.8-40,65.8c0,0-33.2,30.9-35.6,35.5
						c-2.4,4.5-2.6,29.2,19.1,45.3c0,0-29.4,189.3,7.9,298.4l127.2-49.4L558.6,715l18.9-182.1C577.4,532.9,584.8,498.2,562.4,490.4z
						"/>
				</g>
				<g>
					<g>
						<g>
							<g>
								<path class="st4" d="M629.4,196.7C588.3,155,578,219.6,578,219.6l12.4,10.2c0,0,2.6-22.2,15-11.5
									c12.4,10.7-14.2,12.5-14.2,12.5l8.3,8.7C599.6,239.5,670.5,238.4,629.4,196.7z"/>
								<path class="st0" d="M576,218.1c0,0,7.6-5.6,20.2,7.5c12.6,13.2,8.4,20.3,8.4,20.3h-12.4L578,233.5L576,218.1z"/>
							</g>
							<path class="st4" d="M591,379.6c0,0,30-27.4,33.7-79.7c0,0,3.7,48.4,12.5,64.7c8.9,16.3,22.2,29.6,10.9,60.7
								c-5.8,10.9,19.8,42.5,4.5,62.2c0,0-19.3-9.9-34.6,0c-15.3,9.9-25.6,9.2-33.2,6.3c-7.6-3-20.4,4.5-30.8,8
								c-15.5-27.9,2.7-52.8-1.4-82.9L591,379.6z"/>
							<path class="st2" d="M399.1,410.3c18.8-6.9,18.6-20.8,13.2-31.5c-3.1-4-6-8.3-8.6-12.7c0,0,0-0.1,0-0.1l0,0
								c-7.1-12.4-11.8-26.2-13.4-41.2c-6.7-60.9,39.5-116,103.3-123c63.8-7.1,120.9,36.6,127.7,97.5c3.5,31.4-7.2,61.3-27.1,83.8
								c0,0.1,0.1,0.2,0.1,0.3c7.9,19.9-10.4,43.6-20.5,45.7c-5.5,1.2-10.6,1.7-15.7,1.1c-15.3,17.5-37.8,37.5-68.3,50.6
								c-29.2,13.9-58.7-26.3-58.7-26.3s-6.7-0.1-8.1-6.2c1.5-6.4-3.8-9.7-3.8-9.7s-18.1-7.9-22.1-25
								C396.8,412.4,397.6,410.8,399.1,410.3z"/>
							<g>
								<g>
									<g>
										<path d="M587.6,398.1c-1.1-4.1-3-8.1-5.8-11.1c-1.4-1.5-3.2-2.8-5.1-3.4c-1.9-0.7-4.1-0.8-6.1-0.4c-2,0.4-3.9,1.4-5.4,2.8
											c-1.5,1.4-2.7,3.1-3.7,5c-1.9,3.7-3.1,7.9-3.6,12l-0.4-0.5c2.1,0.2,4.1,0.8,5.8,1.9c0.9,0.5,1.7,1.2,2.3,2.1
											c0.6,0.9,1,1.9,1.1,2.9c0.2,1,0.1,2.1-0.3,3.1c-0.4,1-1,1.8-1.9,2.4c-1.6,1.2-3.6,1.8-5.6,2c2-0.3,3.9-1,5.4-2.2
											c0.7-0.6,1.3-1.4,1.6-2.3c0.3-0.9,0.3-1.9,0.1-2.8c-0.3-1.9-1.6-3.5-3.2-4.4c-1.7-1-3.6-1.4-5.5-1.6l-0.5,0l0.1-0.4
											c0.5-4.3,1.6-8.5,3.6-12.4c1-1.9,2.3-3.7,3.9-5.2c1.6-1.5,3.7-2.5,5.9-2.9c2.2-0.4,4.4-0.2,6.5,0.6
											c2.1,0.8,3.9,2.1,5.3,3.8c1.4,1.6,2.6,3.5,3.4,5.4C586.5,394,587.2,396,587.6,398.1z"/>
									</g>
								</g>
								<g>
									<g>
										<path d="M409.8,344.6c0.8-1.4,1.9-2.6,3-3.8c1.2-1.1,2.4-2.1,3.8-3c2.7-1.8,5.8-3,9-3.5c0.8-0.1,1.6-0.1,2.4-0.2
											c0.8-0.1,1.6-0.1,2.4,0c0.8,0.1,1.6,0,2.4,0.2c0.8,0.1,1.6,0.3,2.4,0.4c0.8,0.1,1.6,0.4,2.3,0.6l2.3,0.7
											c1.5,0.6,2.9,1.3,4.4,2c-1.5-0.5-3-1.1-4.5-1.5l-2.3-0.6c-0.8-0.2-1.5-0.4-2.3-0.5c-0.8-0.1-1.6-0.2-2.3-0.3
											c-0.8-0.1-1.6-0.1-2.3-0.1c-0.8,0-1.6-0.1-2.3,0c-0.8,0.1-1.6,0.1-2.3,0.2c-3.1,0.5-6.1,1.6-8.8,3.1
											C414.3,340,411.8,342.1,409.8,344.6z"/>
									</g>
									<g>
										<path d="M453.6,381.5c-0.4-0.9-0.9-1.7-1.4-2.5c-0.5-0.8-1-1.6-1.6-2.4c-0.6-0.8-1.2-1.5-1.9-2.1
											c-0.7-0.7-1.4-1.3-2.2-1.8l0,0l0,0c-2.4-1.7-5.1-2.9-8-2.6c-2.8,0.2-5.5,1.5-7.5,3.6c-2,2.1-3.3,4.7-4.3,7.5
											c-0.9,2.8-1.5,5.7-1.9,8.6c0.1-3,0.5-5.9,1.3-8.8c0.4-1.4,0.9-2.9,1.6-4.2c0.7-1.3,1.6-2.6,2.6-3.7c1-1.1,2.3-2.1,3.6-2.8
											c1.4-0.7,2.9-1.1,4.5-1.1c3.1-0.2,6.1,1.1,8.5,3l0,0c0.8,0.6,1.5,1.3,2.2,2c0.7,0.7,1.3,1.5,1.8,2.3
											c0.5,0.8,1,1.7,1.5,2.5C452.9,379.7,453.3,380.6,453.6,381.5z"/>
									</g>
									<g>
										<path d="M450.2,375.5c0.5-0.2,1-0.4,1.5-0.6c0.5-0.2,1-0.5,1.5-0.8c1-0.6,1.9-1.3,2.7-2.1c-0.7,0.9-1.5,1.8-2.4,2.5
											c-0.5,0.4-0.9,0.7-1.4,1c-0.5,0.3-1,0.6-1.6,0.9L450.2,375.5z"/>
									</g>
									<g>
										<path d="M431.3,453.3c1.5-0.1,2.9-0.4,4.3-0.7c0.7-0.2,1.4-0.4,2.1-0.6c0.7-0.2,1.4-0.5,2.1-0.7c2.7-1,5.4-2.4,7.7-4.1
											c2.3-1.7,4.5-3.7,6.2-6.1c1-1.1,1.7-2.4,2.5-3.6c0.8-1.2,1.3-2.6,2.1-3.9l-0.8,2.1c-0.3,0.7-0.5,1.4-0.9,2
											c-0.7,1.3-1.4,2.6-2.3,3.8c-1.7,2.5-3.9,4.5-6.3,6.3c-2.4,1.8-5.1,3.2-7.9,4.1C437.2,452.8,434.2,453.3,431.3,453.3z"/>
									</g>
								</g>
							</g>
							<path class="st4" d="M587.6,227.2c-45.2-39.7-105.9-33.6-134.4-19.3c-94.4,47.6-61,82-61,82c15.1,9.4,108.2,5,127.5,25.4
								c11.3,11.9,18.4,33,22.3,48.4c-20.3,20.3-4.2,41.5-0.8,46.1c5.1,6.4,3.3,19.8,3.3,19.8c8.7-12.6,1.1-20.8-2.6-32.2
								c-1.9-6,0.9-11.3,4-15c0,0.1,0,0.2,0,0.2c27-29.8,48.2,0.9,48.2,0.9C639.9,339,632.8,266.9,587.6,227.2z"/>
						</g>
					</g>
					<circle class="st5" cx="472" cy="412.4" r="20.9"/>
				</g>
				<g>
					<g>
						<g>
							<path class="st2" d="M362.6,898.5c9.8-2.9,13-9.2,13-9.2l11.5-15.4c5.5-5.6,11.8-8.8,18.5-11.3c2.9-5.1,5.2-7.7,5.2-7.7
								s10.2,3.2,16.8,9.5c3.4,23.1-5.4,59.8-5.4,59.8s0,0,0,0l-6.9,28.1c0,0-1.1,4.6-4.8,3.8c-3.7-0.8-3.2-5-3.2-5l4.6-30.8
								c-0.1,0-0.2-0.1-0.2-0.1l-11,34.9c0,0-1.8,5.8-5.9,4.7c-4.2-1.2-3-6.5-3-6.5l9.1-37.9c0,0-0.1,0-0.1,0l-15.5,37.3
								c0,0-2.2,5.4-6.3,3.9c-4.1-1.5-2.3-7-2.3-7l13.5-39.5c-0.1,0-0.1-0.1-0.1-0.1l-18.7,32.1c0,0-3,5.3-6.8,3.5
								c-3.8-1.8-1.4-6.8-1.4-6.8l17.4-34.6c1.9-2.8,4.7-9.5,4.7-9.5l-8,5.4c0,0-5,3.3-9.8,4.2c-4.9,0.8-7.2-1.6-7.2-1.6
								S358.6,899.5,362.6,898.5z"/>
						</g>
						<path class="st2" d="M482.3,766.7C475.4,792,454.1,829,415,893.3l-17.3-9.7c6.9-14.1,20-117.4,27.1-138.4
							c7-21.1,24.1-45.8,24.1-45.8c8.3,2.8,30,10.1,38,12.9C486.8,712.4,489.2,741.5,482.3,766.7z"/>
						<path class="st2" d="M521,508c17.5,0.1,27.3,9.4,27.3,9.4s20.3,15.5,3.3,50.5c-16.7,34.4-64.7,144.5-64.7,144.5
							s-29.7-10-38-12.9l25.5-104.5C474.4,594.9,492.8,507.3,521,508z"/>
					</g>
					<g>
						<path class="st6" d="M448.9,696c0,0,29.9-135,38.3-149.7c8.4-14.7,15.8-50.1,50.3-38.4c34.4,11.7,17.4,56,17.4,56l-67.8,153.9
							L448.9,696z"/>
						<polygon class="st3" points="435.6,717 489.7,746.9 503.6,718.3 441.4,688.7 						"/>
					</g>
				</g>
				<path class="st7" d="M569.3,421.3c-10.1,0-18.3,8.2-18.3,18.3c0,10.1,8.2,18.3,18.3,18.3c10.1,0,18.3-8.2,18.3-18.3
					C587.6,429.5,579.4,421.3,569.3,421.3z M569.3,449.7c-7,0-12.8-5.7-12.8-12.8c0-7,5.7-12.8,12.8-12.8c7,0,12.8,5.7,12.8,12.8
					C582.1,443.9,576.3,449.7,569.3,449.7z"/>
			</g>
			<g>
				<path class="st8" d="M373.7,574.5c4.9-5-16.5-80.8-16.5-80.8l0,0c-13.3-42.7-29.4-54.3-29.4-54.3s-5.2-7.4-10.5-11.5
					c-9.2-23.9-5.7-55-5.7-55l-38-33.2c1.8,56.7-2.7,80.2-6.4,89.8c-11.1,10.7-10.2,37.2-10.2,37.2l-13.6,187.4
					c-7.8,50.2-11,169.5-11,169.5L365.8,873c0,0,18.3-65.6,15.4-218.8C380.8,629.2,376.1,594.5,373.7,574.5z"/>
				<g>
					<g>
						<g>
							<path class="st8" d="M403.3,292c-19.9,1.6-25.6-11.2-25.1-23.1c1.2-5,2-10,2.5-15.1c0,0,0-0.1,0-0.1l0,0
								c1.3-14.2-0.2-28.8-4.9-43c-19.2-58.2-84.1-89.1-145.1-69c-60.9,20.1-94.8,83.5-75.6,141.7c9.9,30.1,32.1,52.8,59.5,65
								c0,0.1,0,0.2,0,0.3c1.1,21.4,27.6,35.3,37.7,33c5.5-1.2,10.3-2.8,14.7-5.5c21.2,9.6,50,18.4,83.1,17.6
								c23.6,0.4,35.4-25.5,40-39.5c3.1-0.7,5-1.5,5.7-4.2c0.4-3.1-1.3-4.7-1.3-4.7s5.6-2.8,4.4-8.9c-4-5.2-2-10.4-2-10.4
								s13.2-14.7,9.7-32C406.3,292.9,404.9,291.7,403.3,292z"/>
							<g>
								<g>
									<g>
										<path d="M370.2,234.3c-3.3-0.6-6.7-0.5-10,0c-3.3,0.5-6.5,1.4-9.5,2.8c-0.8,0.3-1.5,0.7-2.2,1.1c-0.4,0.2-0.7,0.4-1.1,0.6
											l-1,0.7c-0.7,0.4-1.4,0.9-2.1,1.3l-2,1.5c-0.3,0.3-0.7,0.5-1,0.8l-0.9,0.8l-1.9,1.7c-1.2,1.2-2.3,2.4-3.5,3.6
											c1-1.3,2.1-2.7,3.2-3.9l1.8-1.8l0.9-0.9c0.3-0.3,0.6-0.5,1-0.8l2-1.6c0.7-0.5,1.4-1,2.1-1.4l1.1-0.7
											c0.4-0.2,0.7-0.4,1.1-0.6c0.8-0.4,1.5-0.8,2.3-1.2c3.1-1.4,6.4-2.3,9.8-2.6c1.7-0.2,3.4-0.2,5.1-0.1
											C366.9,233.6,368.6,233.8,370.2,234.3z"/>
									</g>
									<g>
										<path d="M343.4,280.9c0.5,0.8,0.9,1.7,1.5,2.5c0.5,0.8,1.1,1.6,1.7,2.3c0.6,0.7,1.3,1.4,2,2.1c0.7,0.6,1.5,1.2,2.2,1.7
											l0,0l0,0c1.6,1,3.4,1.9,5.3,2.2c1.9,0.3,3.8,0.1,5.6-0.5c1.8-0.6,3.4-1.7,4.7-3.1c1.3-1.4,2.4-3.1,3.1-4.8l0,0
											c0.3-0.6,0.6-1.4,0.8-2.1c0.2-0.7,0.4-1.5,0.6-2.2c0.4-1.5,0.6-3,0.7-4.5c0,0.8,0,1.5,0,2.3c0,0.8-0.1,1.5-0.2,2.3
											c-0.1,0.8-0.3,1.5-0.5,2.3c-0.2,0.8-0.4,1.5-0.7,2.2l0,0c-0.7,2-1.7,3.7-3.1,5.2c-1.4,1.5-3.1,2.7-5.1,3.4
											c-2,0.7-4.1,0.9-6.1,0.5c-2-0.4-3.9-1.3-5.6-2.5l0,0c-0.9-0.6-1.6-1.2-2.3-1.9c-0.7-0.7-1.3-1.4-1.9-2.2
											c-0.6-0.8-1.1-1.6-1.6-2.5C344.1,282.6,343.7,281.8,343.4,280.9z"/>
									</g>
								</g>
								<g>
									<g>
										<path d="M226.8,359.2c-0.5-2.1-0.7-4.2-0.8-6.4c0-2.1,0.2-4.3,0.9-6.4c0.6-2.1,1.7-4.1,3.3-5.6c1.6-1.6,3.6-2.6,5.7-3.2
											c2.1-0.6,4.5-0.4,6.6,0.2c2.1,0.7,4,1.8,5.7,3.1c3.4,2.7,6.2,6.1,8.4,9.8l0.2,0.4l-0.4,0.2c-1.6,0.9-3.2,2.2-4.3,3.8
											c-1.1,1.5-1.6,3.5-1.1,5.4c0.2,0.9,0.7,1.8,1.3,2.5c0.7,0.7,1.5,1.2,2.4,1.4c1.9,0.5,3.9,0.3,5.8-0.2
											c-1.9,0.6-3.9,1-5.9,0.5c-1-0.2-1.9-0.7-2.7-1.4c-0.7-0.7-1.2-1.7-1.5-2.7c-0.3-1-0.4-2.1-0.2-3.1c0.2-1,0.6-2,1.2-2.9
											c1.2-1.7,2.7-3.1,4.5-4.1l-0.2,0.6c-2.2-3.5-5-6.9-8.3-9.4c-1.6-1.3-3.5-2.4-5.4-3c-2-0.6-4.1-0.8-6.1-0.3
											c-2,0.5-3.9,1.5-5.4,2.9c-1.5,1.4-2.6,3.3-3.2,5.2C226.2,350.7,226.1,355.1,226.8,359.2z"/>
									</g>
								</g>
							</g>
						</g>
						<path class="st9" d="M344.4,152.1c-40.7-27.9-71.8-21.7-71.8-21.7l10.6-8.4c-24.9-3.7-54.6,13.5-54.6,13.5
							c1-7-8.6-8.3-8.6-8.3c1.7,5.9-10.4,16-18.3,20c-32.6,21-43.8,47.8-43.8,47.8c-31.5,51.1,0,117,0,117v-11.8
							c19.3,39.6,56.7,48.2,56.7,48.2c7.4-32.9,48.8-23.9,48.8-23.9c14.1-20.2,4.4-35.5,3.2-59.8c-1.2-24.2,14.1-35.8,14.1-35.8
							c-6.7,12.8,2.5,23.2,2.5,23.2c-1.9-14.1,14.7-25.1,31-35.7c-10.5,10.6-5.7,17.3-5.7,17.3s-0.4-6,11.6-11.7
							c17.7-8.5,38.1-30.6,33.9-48.2c7.2,5.7,11-0.3,11-0.3C356,167.7,357.5,160.7,344.4,152.1z"/>
					</g>
					<path class="st10" d="M358.9,314.6c4.8,10.5,0.2,22.9-10.3,27.6c-10.5,4.8-22.9,0.2-27.6-10.3c-4.8-10.5-0.2-22.9,10.3-27.6
						C341.8,299.5,354.2,304.1,358.9,314.6z"/>
				</g>
				<path class="st11" d="M330.1,439c0,0,2.6-18.9-4.2-22.2c-12.3-8.9-60-11.7-71.5-5.2c-1.7,0.9-3.6,3,0,25.6
					c-10.7,89.5-28.2,382.4-28.2,382.4l145.4,58.5C371.7,878.1,417.6,542.4,330.1,439z"/>
				<g>
					<g>
						<g>
							<path class="st8" d="M467,837.6c-9.8-2.9-13-9.2-13-9.2L442.5,813c-5.5-5.6-11.8-8.8-18.5-11.3c-2.9-5.1-5.2-7.7-5.2-7.7
								s-10.2,3.2-16.8,9.5c-3.4,23.1,5.4,59.8,5.4,59.8s0,0,0,0l6.9,28.1c0,0,1.1,4.6,4.8,3.8c3.7-0.8,3.2-5,3.2-5l-4.6-30.8
								c0.1,0,0.2-0.1,0.2-0.1l11,34.9c0,0,1.8,5.8,5.9,4.7c4.2-1.2,3-6.5,3-6.5l-9.1-37.9c0,0,0.1,0,0.1,0l15.5,37.3
								c0,0,2.2,5.4,6.3,3.9c4.1-1.5,2.3-7,2.3-7l-13.5-39.5c0.1,0,0.1-0.1,0.1-0.1l18.7,32.1c0,0,3,5.3,6.8,3.5
								c3.8-1.8,1.4-6.8,1.4-6.8l-17.4-34.6c-1.9-2.8-4.7-9.5-4.7-9.5l8,5.4c0,0,5,3.3,9.8,4.2c4.9,0.8,7.2-1.6,7.2-1.6
								S471,838.6,467,837.6z"/>
						</g>
						<path class="st8" d="M347.3,705.8c6.9,25.2,28.1,62.3,67.2,126.6l17.3-9.7c-6.9-14.1-20-117.4-27.1-138.4
							c-7-21.1-24.1-45.8-24.1-45.8c-8.3,2.8-30,10.1-38,12.9C342.8,651.5,340.4,680.6,347.3,705.8z"/>
						<path class="st8" d="M308.6,447.1c-17.5,0.1-27.3,9.4-27.3,9.4s-20.3,15.5-3.3,50.5c16.7,34.4,64.7,144.5,64.7,144.5
							s29.7-10,38-12.9L355.2,534C355.2,534,336.8,446.4,308.6,447.1z"/>
					</g>
					<path class="st12" d="M289,447.1c41.6-13.4,53.3,39.7,53.3,39.7S442.5,794.1,441,797.9c-1.5,3.9-53.9,22.4-53.9,22.4L274.6,513
						C274.6,513,247.5,460.4,289,447.1z"/>
				</g>
			</g>
		</g>
	</g>
</g>
</svg>
